<svg id="visual" viewBox="0 0 960 300" width="960" height="300" xmlns="http://www.w3.org/2000/svg" xmlns:xlink="http://www.w3.org/1999/xlink" version="1.1"><rect x="0" y="0" width="960" height="300" fill="#43cea2"></rect><path d="M0 82L22.8 83.3C45.7 84.7 91.3 87.3 137 90.5C182.7 93.7 228.3 97.3 274 98C319.7 98.7 365.3 96.3 411.2 95.7C457 95 503 96 548.8 98C594.7 100 640.3 103 686 104.7C731.7 106.3 777.3 106.7 823 109.5C868.7 112.3 914.3 117.7 937.2 120.3L960 123L960 0L937.2 0C914.3 0 868.7 0 823 0C777.3 0 731.7 0 686 0C640.3 0 594.7 0 548.8 0C503 0 457 0 411.2 0C365.3 0 319.7 0 274 0C228.3 0 182.7 0 137 0C91.3 0 45.7 0 22.8 0L0 0Z" fill="#43cea2"></path><path d="M0 68L22.8 67.7C45.7 67.3 91.3 66.7 137 69.2C182.7 71.7 228.3 77.3 274 83C319.7 88.7 365.3 94.3 411.2 92.3C457 90.3 503 80.7 548.8 80.3C594.7 80 640.3 89 686 90.5C731.7 92 777.3 86 823 83.2C868.7 80.3 914.3 80.7 937.2 80.8L960 81L960 0L937.2 0C914.3 0 868.7 0 823 0C777.3 0 731.7 0 686 0C640.3 0 594.7 0 548.8 0C503 0 457 0 411.2 0C365.3 0 319.7 0 274 0C228.3 0 182.7 0 137 0C91.3 0 45.7 0 22.8 0L0 0Z" fill="#00b5b9"></path><path d="M0 62L22.8 65C45.7 68 91.3 74 137 73.2C182.7 72.3 228.3 64.7 274 62.8C319.7 61 365.3 65 411.2 68.5C457 72 503 75 548.8 75.3C594.7 75.7 640.3 73.3 686 70.3C731.7 67.3 777.3 63.7 823 60.2C868.7 56.7 914.3 53.3 937.2 51.7L960 50L960 0L937.2 0C914.3 0 868.7 0 823 0C777.3 0 731.7 0 686 0C640.3 0 594.7 0 548.8 0C503 0 457 0 411.2 0C365.3 0 319.7 0 274 0C228.3 0 182.7 0 137 0C91.3 0 45.7 0 22.8 0L0 0Z" fill="#0099bb"></path><path d="M0 42L22.8 41.7C45.7 41.3 91.3 40.7 137 41.8C182.7 43 228.3 46 274 43.8C319.7 41.7 365.3 34.3 411.2 35.7C457 37 503 47 548.8 49.8C594.7 52.7 640.3 48.3 686 45C731.7 41.7 777.3 39.3 823 39.5C868.7 39.7 914.3 42.3 937.2 43.7L960 45L960 0L937.2 0C914.3 0 868.7 0 823 0C777.3 0 731.7 0 686 0C640.3 0 594.7 0 548.8 0C503 0 457 0 411.2 0C365.3 0 319.7 0 274 0C228.3 0 182.7 0 137 0C91.3 0 45.7 0 22.8 0L0 0Z" fill="#007ab0"></path><path d="M0 23L22.8 24C45.7 25 91.3 27 137 26.5C182.7 26 228.3 23 274 23.2C319.7 23.3 365.3 26.7 411.2 28.8C457 31 503 32 548.8 33C594.7 34 640.3 35 686 32.8C731.7 30.7 777.3 25.3 823 24.8C868.7 24.3 914.3 28.7 937.2 30.8L960 33L960 0L937.2 0C914.3 0 868.7 0 823 0C777.3 0 731.7 0 686 0C640.3 0 594.7 0 548.8 0C503 0 457 0 411.2 0C365.3 0 319.7 0 274 0C228.3 0 182.7 0 137 0C91.3 0 45.7 0 22.8 0L0 0Z" fill="#185a9d"></path></svg>