<svg id="visual" viewBox="0 0 960 400" width="960" height="400" xmlns="http://www.w3.org/2000/svg" xmlns:xlink="http://www.w3.org/1999/xlink" version="1.1"><rect x="0" y="0" width="960" height="400" fill="#ffffff"></rect><defs><linearGradient id="grad1_0" x1="58.3%" y1="100%" x2="100%" y2="0%"><stop offset="2.0000000000000036%" stop-color="#ffffff" stop-opacity="1"></stop><stop offset="98%" stop-color="#ffffff" stop-opacity="1"></stop></linearGradient></defs><defs><linearGradient id="grad2_0" x1="0%" y1="100%" x2="41.7%" y2="0%"><stop offset="2.0000000000000036%" stop-color="#ffffff" stop-opacity="1"></stop><stop offset="98%" stop-color="#ffffff" stop-opacity="1"></stop></linearGradient></defs><g transform="translate(960, 400)"><path d="M-200 0C-184.4 -28.8 -168.9 -57.6 -154.2 -89C-139.4 -120.4 -125.6 -154.3 -100 -173.2C-74.4 -192.1 -37.2 -196.1 0 -200L0 0Z" fill="#185a9d"></path></g><g transform="translate(0, 0)"><path d="M200 0C185.4 29.4 170.7 58.7 155.9 90C141 121.3 126 154.5 100 173.2C74 191.9 37 195.9 0 200L0 0Z" fill="#185a9d"></path></g></svg>